<?xml version="1.0" standalone="no"?>
<!DOCTYPE svg PUBLIC "-//W3C//DTD SVG 20010904//EN"
 "http://www.w3.org/TR/2001/REC-SVG-20010904/DTD/svg10.dtd">
<svg version="1.0" xmlns="http://www.w3.org/2000/svg"
 width="16.000000pt" height="16.000000pt" viewBox="0 0 16.000000 16.000000"
 preserveAspectRatio="xMidYMid meet">

<g transform="translate(0.000000,16.000000) scale(0.100000,-0.100000)"
fill="#000000" stroke="none">
<path d="M22 138 c-16 -16 -16 -100 0 -116 16 -16 100 -16 116 0 16 16 16 100
0 116 -16 16 -100 16 -116 0z m113 -58 l0 -55 -55 0 -55 0 -3 44 c-5 67 0 72
60 69 l53 -3 0 -55z"/>
<path d="M62 88 c-2 -39 -17 -51 -25 -20 -4 15 -5 15 -6 0 0 -9 4 -20 10 -24
18 -11 31 12 26 47 l-4 34 -1 -37z"/>
</g>
</svg>
